<svg xmlns="http://www.w3.org/2000/svg" fill="none" preserveAspectRatio="none" viewBox="0 0 16 16"><g clip-path="url(#calendar-icon_svg__a)"><path stroke="currentColor" stroke-linecap="round" stroke-width="1.5" d="M9.334 14.667H6.667c-2.514 0-3.771 0-4.552-.781-.782-.781-.782-2.038-.782-4.553V8c0-2.514 0-3.771.782-4.552.78-.781 2.038-.781 4.552-.781h2.667c2.514 0 3.77 0 4.552.78.78.782.78 2.039.78 4.553v1.333c0 2.514 0 3.772-.78 4.553-.436.435-1.02.628-1.886.713M4.667 2.667v-1m6.667 1v-1m3 4.333H7.167M1.334 6h2.583"/><path fill="currentColor" d="M12 11.333a.667.667 0 1 1-1.333 0 .667.667 0 0 1 1.333 0m0-2.666a.667.667 0 1 1-1.333 0 .667.667 0 0 1 1.333 0m-3.333 2.666a.667.667 0 1 1-1.334 0 .667.667 0 0 1 1.334 0m0-2.666a.667.667 0 1 1-1.333 0 .667.667 0 0 1 1.333 0m-3.334 2.666a.667.667 0 1 1-1.333 0 .667.667 0 0 1 1.333 0m0-2.666a.667.667 0 1 1-1.333 0 .667.667 0 0 1 1.333 0"/></g><defs><clipPath id="calendar-icon_svg__a"><path d="M0 0h16v16H0z"/></clipPath></defs></svg>