<svg xmlns="http://www.w3.org/2000/svg" fill="none" preserveAspectRatio="none" viewBox="0 0 32 32"><path fill="currentColor" d="M5.715 4.569H24v11.428h2.286V2.283H3.43v27.429H16v-2.286H5.715z"/><path fill="currentColor" d="M8 6.854h13.714V9.14H8zm0 4.572h11.428v2.286H8zm0 4.571h6.857v2.286H8zm14.857 1.058-5.714 3.143v6.286l5.715 3.142 5.714-3.142v-6.286zm3.429 8.077-3.428 1.886-3.429-1.886v-3.583l3.429-1.885 3.428 1.885z"/><path fill="currentColor" d="M21.714 23.34a1.143 1.143 0 1 0 2.286 0 1.143 1.143 0 0 0-2.286 0"/></svg>