<svg xmlns="http://www.w3.org/2000/svg" fill="none" preserveAspectRatio="none" viewBox="0 0 20 20"><path stroke="currentColor" stroke-linecap="round" stroke-linejoin="round" stroke-width="2" d="M15.833 2.5H4.167c-.92 0-1.667.746-1.667 1.667v.976c0 .442.176.866.488 1.178l4.857 4.857c.313.313.488.737.488 1.179v4.548c0 .527.638.79 1.01.418l.657-.656 1.178-1.179c.313-.312.489-.736.489-1.178v-1.953c0-.442.175-.866.488-1.178l4.857-4.858c.312-.312.488-.736.488-1.178v-.976c0-.92-.746-1.667-1.667-1.667"/></svg>