<svg xmlns="http://www.w3.org/2000/svg" fill="none" preserveAspectRatio="none" viewBox="0 0 40 28"><g clip-path="url(#Flag-UK_svg__a)"><path fill="#FEFEFE" d="M2.08 28h35.84A2.22 2.22 0 0 0 40 25.79V2.21A2.206 2.206 0 0 0 37.819 0H2.18A2.21 2.21 0 0 0 0 2.21v23.573C0 26.965.928 27.934 2.08 28"/><path fill="#C8102E" d="M17.203 16.793V28h5.565V16.793H40v-5.6H22.768V0h-5.565v11.193H0v5.6z"/><path fill="#012169" d="M24.623 9.064V0h13.21a2.21 2.21 0 0 1 2.015 1.4zm0 9.872V28H37.92a2.22 2.22 0 0 0 1.928-1.4zm-9.275 0V28H2.08a2.21 2.21 0 0 1-1.928-1.415zm0-9.872V0H2.167A2.2 2.2 0 0 0 .152 1.415zM0 9.333h5.543L0 6.541zm40 0h-5.572L40 6.526zm0 9.334h-5.572L40 21.474zm-40 0h5.543L0 21.459z"/><path fill="#C8102E" d="M40 2.37 26.196 9.333h3.087L40 3.938zM13.775 18.667h-3.087L0 24.048v1.568l13.804-6.95h-.029ZM7.623 9.34h3.087L0 3.946v1.56l7.623 3.836Zm24.717 9.32h-3.086L40 24.076v-1.56l-7.66-3.858Z"/></g><defs><clipPath id="Flag-UK_svg__a"><rect width="40" height="28" fill="#fff" rx="4"/></clipPath></defs></svg>