<svg xmlns="http://www.w3.org/2000/svg" fill="none" preserveAspectRatio="none" viewBox="0 0 200 80"><mask id="helvar-logo_svg__a" width="200" height="80" x="0" y="0" maskUnits="userSpaceOnUse" style="mask-type:luminance"><path fill="#fff" d="M200 0H0v80h200z"/></mask><g mask="url(#helvar-logo_svg__a)"><path fill="#fff" d="M200 0H0v80h200z"/><path fill="#BA122B" d="M191.667 0H8.333C3.731 0 0 1.492 0 3.333v73.334C0 78.507 3.731 80 8.333 80h183.334c4.602 0 8.333-1.492 8.333-3.333V3.333C200 1.493 196.269 0 191.667 0"/><path fill="#fff" d="M55.1 60h-6.95V45.1H36.1V60h-6.95V24.4h6.95v14.55h12.05V24.4h6.95zm29.178-11h-16.3c0 3.4 2 5.8 5.7 5.8 2.85 0 4.25-.85 5.9-2.45l3.95 3.85c-2.65 2.7-5.2 4.1-9.9 4.1-6.15 0-12.05-2.8-12.05-13.35 0-8.5 4.6-13.3 11.35-13.3 7.25 0 11.35 5.2 11.35 12.6zm-6.4-4.45c-.05-1.15-.15-1.85-.6-2.8-.7-1.55-2.15-2.7-4.35-2.7s-3.65 1.15-4.35 2.7c-.45.95-.55 1.65-.6 2.8zM101.322 60h-3.7c-5.35 0-7.6-3.75-7.6-7.45V24.4h6.5v27.75c0 1.55.65 2.35 2.3 2.35h2.5zm24.008-26.05L115.779 60h-5.1l-9.6-26.05h6.85l5.3 16.1 5.25-16.1h6.85ZM148.643 60h-6.35v-2.25c-1.75 1.75-3.4 2.5-6.4 2.5-2.95 0-5.15-.8-6.65-2.3-1.4-1.45-2.15-3.55-2.15-5.85 0-4.15 2.85-7.55 9-7.55h6.05v-1.3c0-2.85-1.4-4.1-4.85-4.1-2.35 0-3.6.65-5 2.25l-4.1-4.05c2.55-2.8 5-3.7 9.35-3.7 7.35 0 11.1 3.1 11.1 9.2zm-6.5-9.6V49h-4.95c-2.6 0-3.85 1.05-3.85 3 0 1.8 1.25 2.95 3.95 2.95 1.6 0 2.75-.2 3.85-1.25.75-.65 1-1.65 1-3.3m32.559-14.3-4.9 4.95c-1-1-1.85-1.55-3.45-1.55-2 0-4.2 1.5-4.2 4.8V60h-6.5V33.95h6.35v2.5c1.25-1.5 3.75-2.8 6.55-2.8 2.55 0 4.35.65 6.15 2.45"/></g></svg>