<svg xmlns="http://www.w3.org/2000/svg" fill="none" preserveAspectRatio="none" viewBox="0 0 32 33"><path fill="currentColor" d="M10.394 2.886c1.246 0 2.253.96 2.253 2.15v6.424c0 .283-.06.563-.173.824-.114.26-.28.498-.489.697-.21.2-.457.358-.73.466a2.3 2.3 0 0 1-.86.162H4.376c-.295 0-.588-.055-.86-.162a2.3 2.3 0 0 1-.73-.466 2.2 2.2 0 0 1-.488-.697 2.1 2.1 0 0 1-.172-.824V5.035c0-1.186 1.006-2.149 2.25-2.149zm0 17.172c1.246 0 2.253.96 2.253 2.149v6.425c0 .282-.06.562-.173.823-.114.262-.28.499-.489.698-.21.2-.457.358-.73.466a2.3 2.3 0 0 1-.86.162H4.376c-.295 0-.588-.055-.86-.163a2.3 2.3 0 0 1-.73-.465 2.2 2.2 0 0 1-.488-.698 2.1 2.1 0 0 1-.172-.823v-6.425c0-1.189 1.006-2.149 2.25-2.149zM27.626 2.886c1.243 0 2.25.96 2.25 2.15v6.424a2.1 2.1 0 0 1-.661 1.52 2.3 2.3 0 0 1-1.589.629h-6.018a2.3 2.3 0 0 1-.86-.162 2.3 2.3 0 0 1-.731-.465c-.21-.2-.376-.437-.489-.698a2.1 2.1 0 0 1-.172-.824V5.035c0-1.186 1.009-2.149 2.252-2.149zM4.099 15.662h6.573c2.265 0 4.099-1.748 4.099-3.907V4.74a3.8 3.8 0 0 0-.315-1.499 3.9 3.9 0 0 0-.89-1.269 4.1 4.1 0 0 0-1.328-.846 4.2 4.2 0 0 0-1.566-.292h-6.57C1.836.834 0 2.58 0 4.742v7.013c.001.515.108 1.024.315 1.5.206.474.509.905.89 1.268a4.1 4.1 0 0 0 1.328.846 4.2 4.2 0 0 0 1.566.293m0 17.172h6.573c2.265 0 4.099-1.748 4.099-3.91v-7.012a3.8 3.8 0 0 0-.315-1.5 3.9 3.9 0 0 0-.89-1.268 4.1 4.1 0 0 0-1.328-.846 4.2 4.2 0 0 0-1.566-.293h-6.57c-2.266 0-4.1 1.748-4.1 3.907v7.015c.002.515.108 1.024.315 1.499s.51.906.89 1.269a4.1 4.1 0 0 0 1.329.846 4.2 4.2 0 0 0 1.566.293zm17.234-17.172h6.568c2.265 0 4.099-1.748 4.099-3.907V4.74a3.8 3.8 0 0 0-.314-1.499 3.9 3.9 0 0 0-.89-1.269 4.1 4.1 0 0 0-1.33-.846 4.2 4.2 0 0 0-1.565-.292h-6.57c-2.266 0-4.097 1.747-4.097 3.908v7.013c.001.515.108 1.024.315 1.5.206.474.509.905.89 1.268a4.1 4.1 0 0 0 1.329.846 4.2 4.2 0 0 0 1.565.293m6.285 15.106h-6.29c-1.356 0-1.941-.541-1.941-1.843v-7.013c0-1.298.588-1.864 1.944-1.864h6.57c1.361 0 1.972.564 1.972 1.861v7.02c0 .431.48.926 1.107.926S32 29.36 32 28.93v-7.02a3.8 3.8 0 0 0-.315-1.499 3.9 3.9 0 0 0-.89-1.268 4.1 4.1 0 0 0-1.329-.845 4.2 4.2 0 0 0-1.565-.293h-6.57c-2.266 0-4.1 1.748-4.1 3.907v7.015a3.8 3.8 0 0 0 .315 1.498c.206.475.509.906.889 1.27.38.362.832.65 1.328.845a4.2 4.2 0 0 0 1.565.294h6.552c.473 0 1.079-.37 1.079-1.037a1 1 0 0 0-.31-.72 1.1 1.1 0 0 0-.748-.309z"/></svg>