<svg xmlns="http://www.w3.org/2000/svg" fill="none" preserveAspectRatio="none" viewBox="0 0 32 32"><path stroke="currentColor" stroke-width="2" d="M10.457 5.07C13.162 3.468 14.515 2.667 16 2.667s2.838.8 5.543 2.403l.915.541c2.704 1.602 4.057 2.403 4.8 3.722.742 1.32.742 2.921.742 6.125v1.084c0 3.204 0 4.805-.742 6.125-.743 1.319-2.096 2.12-4.8 3.722l-.915.542c-2.705 1.601-4.058 2.402-5.543 2.402s-2.838-.8-5.543-2.402l-.914-.542c-2.705-1.602-4.058-2.403-4.8-3.722C4 21.347 4 19.746 4 16.542v-1.084c0-3.204 0-4.805.743-6.125.742-1.319 2.095-2.12 4.8-3.722z"/><path stroke="currentColor" stroke-width="2" d="M16 20a4 4 0 1 0 0-8 4 4 0 0 0 0 8Z"/></svg>