<svg xmlns="http://www.w3.org/2000/svg" fill="none" preserveAspectRatio="none" viewBox="0 0 32 33"><g fill="currentColor" stroke="currentColor" stroke-width=".5"><path d="M26.896 15.275H5.105a3.37 3.37 0 0 0-3.366 3.367v4.116l.987.141a1.174 1.174 0 0 1 1.002 1.155c0 .577-.43 1.074-1.001 1.155l-.988.142v4.117a3.37 3.37 0 0 0 3.366 3.366h21.791a3.37 3.37 0 0 0 3.366-3.366V25.27l-1.098-.051a1.165 1.165 0 0 1 0-2.331l1.098-.052v-4.195a3.37 3.37 0 0 0-3.366-3.367Zm2.214 6.463a2.32 2.32 0 0 0 0 4.632v3.098a2.214 2.214 0 0 1-2.214 2.214H5.105a2.214 2.214 0 0 1-2.215-2.214v-3.119a2.32 2.32 0 0 0 0-4.59v-3.117c0-1.224.992-2.215 2.215-2.215h21.791c1.223 0 2.214.991 2.214 2.215z"/><path d="M9.113 28.297h-.762v1.988h.762zm0-3.491h-.762v1.987h.762zm0-3.491h-.762v1.987h.762zm0-3.491h-.762v1.987h.762zm-2.16-5.694-.666.371.966 1.736.666-.37-.966-1.736Z"/><path d="M31.095 12.023 29.59 9.316l-.534-.96-.985.489a1.165 1.165 0 0 1-1.538-.478 1.165 1.165 0 0 1 .405-1.56l.935-.578-.535-.96-1.506-2.707a3.37 3.37 0 0 0-4.578-1.304L2.211 11.852a3.37 3.37 0 0 0-1.305 4.579l.055.098c.204-.4.464-.765.77-1.088-.3-.977.11-2.065 1.04-2.583L21.813 2.264a2.214 2.214 0 0 1 3.012.858l1.506 2.707a2.319 2.319 0 0 0 2.252 4.047l1.506 2.707a2.21 2.21 0 0 1-.223 2.475 4.7 4.7 0 0 1 .79.848 3.37 3.37 0 0 0 .44-3.883Z"/></g></svg>