<svg xmlns="http://www.w3.org/2000/svg" fill="none" preserveAspectRatio="none" viewBox="0 0 32 32"><path stroke="currentColor" stroke-linecap="round" stroke-linejoin="round" stroke-width="1.5" d="M19.103 9.96a2.917 2.917 0 1 1-5.835-.006 2.917 2.917 0 0 1 5.835.006m.093 7.216H13.18a3.894 3.894 0 0 0 0 7.784h6.016a3.894 3.894 0 0 0 0-7.784m7.284-4.986a2.231 2.231 0 1 1-4.461-.002 2.231 2.231 0 0 1 4.462.003Zm-20.933 0a2.231 2.231 0 1 0 4.462 0 2.231 2.231 0 0 0-4.462 0" clip-rule="evenodd"/><path fill="currentColor" d="M24.88 17.074a.96.96 0 1 0 0 1.92zm1.672.96.02-.96h-.02zm0 5.953v.96h.02zm-1.673-.96a.96.96 0 1 0 0 1.92zM7.15 18.994a.96.96 0 1 0 0-1.92zm-1.673-.96v-.96h-.02zm0 5.953-.02.96h.02zm1.673.96a.96.96 0 0 0 0-1.92zm17.73-5.953h1.673v-1.92H24.88zm1.653 0a2.017 2.017 0 0 1 1.976 2.017h1.92a3.937 3.937 0 0 0-3.856-3.937zm1.976 2.017a2.017 2.017 0 0 1-1.976 2.017l.04 1.919a3.937 3.937 0 0 0 3.856-3.936zm-1.956 2.016H24.88v1.92h1.673zM7.15 17.074H5.476v1.92h1.673v-1.92Zm-1.693 0A3.937 3.937 0 0 0 1.6 21.011h1.92c0-1.098.878-1.994 1.976-2.017zM1.6 21.011a3.937 3.937 0 0 0 3.856 3.936l.04-1.92a2.017 2.017 0 0 1-1.976-2.016zm3.876 3.936h1.673v-1.92H5.476z"/></svg>